<?xml version="1.0" encoding="UTF-8"?>
<!-- Generator: Adobe Illustrator 24.2.3, SVG Export Plug-In . SVG Version: 6.00 Build 0)  -->
<svg xmlns="http://www.w3.org/2000/svg" xmlns:xlink="http://www.w3.org/1999/xlink" version="1.1" id="Livello_1" x="0px" y="0px" viewBox="0 0 200 200" style="enable-background:new 0 0 200 200;" xml:space="preserve">
<style type="text/css">
	.st0{fill:#C39D42;}
</style>
<g>
	<defs>
		<rect id="SVGID_1_" x="0.3" y="-0.2" width="200" height="200"></rect>
	</defs>
	<clipPath id="SVGID_2_">
		<use xlink:href="#SVGID_1_" style="overflow:visible;"></use>
	</clipPath>
</g>
<g>
	<defs>
		<rect id="SVGID_3_" y="0" width="200" height="200"></rect>
	</defs>
	<clipPath id="SVGID_4_">
		<use xlink:href="#SVGID_3_" style="overflow:visible;"></use>
	</clipPath>
</g>
<g id="Raggruppa_450_1_" transform="translate(-403.185 -355.481)">
	<g id="Raggruppa_452_1_">
		<g id="Raggruppa_451_1_">
			<path id="Tracciato_1027_1_" class="st0" d="M449,403.4l-2.1,2.2l-9-8.7l-3.7,3.8l-1.8-1.7l9.5-9.8l1.8,1.7l-3.7,3.8L449,403.4z"></path>
			<path id="Tracciato_1028_1_" class="st0" d="M453.5,386.7l6.1,8.1l-2.1,1.6l-1.3-1.7c0.5,1.5,0,3.1-1.3,3.9     c-1.3,1.2-3.3,1.1-4.5-0.2c-0.2-0.2-0.3-0.4-0.5-0.6l-4-5.3l2.3-1.8l3.9,5.1c0.8,1.1,1.6,1.1,2.3,0.6c0.7-0.5,1-1.3,0.8-2.1     c-0.2-0.8-0.6-1.6-1.2-2.2l-2.8-3.7L453.5,386.7z"></path>
			<path id="Tracciato_1029_1_" class="st0" d="M468,384.4c1.5,2.6,0.5,5.9-2.1,7.4c-2.6,1.5-5.9,0.5-7.4-2.1     c-1.5-2.6-0.5-5.9,2.1-7.4c0,0,0.1,0,0.1-0.1c2.3-1.5,5.5-0.8,7,1.5C467.8,384,467.9,384.2,468,384.4z M465.4,385.8     c-1-1.8-2.3-2.2-3.6-1.5c-1.3,0.7-1.7,2.1-0.8,3.9c1,1.8,2.3,2.2,3.6,1.5S466.4,387.6,465.4,385.8L465.4,385.8z"></path>
			<path id="Tracciato_1030_1_" class="st0" d="M487.1,384l-2.4-14.8l2-0.3l2.4,14.8L487.1,384z"></path>
			<path id="Tracciato_1031_1_" class="st0" d="M492.4,383.2l-0.4-9.9l1.9-0.1l0.1,2.1c0.4-1.5,1.8-2.5,3.3-2.5     c1.8-0.2,3.4,1,3.6,2.8c0,0.2,0,0.5,0,0.7l0.3,6.6l-2,0.1l-0.3-6.5c0.1-1-0.7-1.9-1.7-2c-0.1,0-0.3,0-0.4,0c-1,0-1.9,0.6-2.3,1.5     c-0.3,0.9-0.5,1.9-0.4,2.9l0.2,4.3L492.4,383.2z"></path>
			<path id="Tracciato_1032_1_" class="st0" d="M507.4,369.5l-0.3,3.8l2.8,0.2l-0.1,1.4l-2.8-0.2l-0.5,5.9c-0.2,0.6,0.2,1.2,0.8,1.4     c0.1,0,0.2,0,0.3,0c0.6,0.1,1.2-0.2,1.6-0.8l0.5,0.4c-0.5,1.1-1.6,1.8-2.8,1.7c-1.2,0-2.3-0.9-2.3-2.2c0-0.2,0-0.4,0.1-0.5     l0.5-6.1l-1.6-0.1l0.1-1.4l1.6,0.1l0.3-3.8L507.4,369.5z"></path>
			<path id="Tracciato_1033_1_" class="st0" d="M519.9,383.2c-1.1,1.5-3.1,2.2-4.9,1.7c-2.6-0.5-4.4-3-4-5.6c0-0.1,0.1-0.3,0.1-0.4     c0.4-2.7,2.9-4.6,5.6-4.3c0.1,0,0.2,0,0.3,0.1c2.9,0.6,4.2,3.2,3.5,6.2l-0.3,0.2l-7.3-1.5c-0.4,1.6,0.5,3.3,2.2,3.8     c0.1,0,0.2,0,0.2,0.1c1.1,0.3,2.3-0.1,3-1.1L519.9,383.2z M513.3,378.2l5.6,1.2c0.3-1.5-0.6-3-2.1-3.3c0,0,0,0-0.1,0     C515.2,375.8,513.7,376.7,513.3,378.2z"></path>
			<path id="Tracciato_1034_1_" class="st0" d="M528.4,382.4c0.2-0.3,0.3-0.6,0.4-0.9c0.4-1.1,0.1-1.8-0.7-2     c-1.5-0.5-2.4,0.8-2.9,2.3l-1.8,5.1l-1.8-0.7l3.3-9.4l1.7,0.6l-0.6,1.8c0.8-1.1,2.1-1.5,3.4-1.1c1.3,0.4,2,1.7,1.7,2.9     c0,0.1-0.1,0.3-0.2,0.4c-0.1,0.3-0.3,0.6-0.4,0.9L528.4,382.4z"></path>
			<path id="Tracciato_1035_1_" class="st0" d="M537.9,385.6c0.4-0.8,0.4-1.8-1-2.5c-1.6-0.8-2.5-0.3-2.9,0.6l-1.6-0.8     c0.6-1.3,2.3-2.6,5.3-1.1c1.9,1,3.1,2.6,2.1,4.6l-2.3,4.5c-0.2,0.3-0.1,0.8,0.2,1c0.1,0,0.1,0.1,0.2,0.1c0.2,0.1,0.5,0.2,0.8,0.2     l-0.6,1.1c-0.5-0.1-1-0.2-1.4-0.4c-0.9-0.3-1.4-1.2-1.1-2.1c-1.2,0.5-2.5,0.4-3.6-0.2c-1.6-0.6-2.3-2.4-1.7-4c0,0,0-0.1,0.1-0.1     c0.7-1.3,2-1.8,3.9-1.2l3.4,1.1L537.9,385.6z M536.9,387.6l-2.8-0.9c-0.9-0.3-1.7-0.2-2.1,0.6c-0.4,0.8,0,1.8,0.8,2.2     c0.1,0,0.1,0,0.2,0.1c1.1,0.7,2.5,0.4,3.2-0.7c0-0.1,0.1-0.1,0.1-0.2L536.9,387.6z"></path>
			<path id="Tracciato_1036_1_" class="st0" d="M548.2,396.9c-1.6,1.6-4.2,1.6-5.9,0.1c-2.2-1.5-2.8-4.5-1.3-6.8     c0.1-0.1,0.1-0.2,0.2-0.3c1.5-2.4,4.6-3.1,6.9-1.6c0.1,0.1,0.2,0.1,0.3,0.2c1.9,1.1,2.7,3.5,1.8,5.6l-1.7-0.4l-0.1-0.2     c0.7-1.2,0.3-2.8-0.8-3.6c-1.3-0.9-3.3-0.8-4.8,1.3c-1.2,1.3-1.1,3.3,0.2,4.4c0.1,0.1,0.2,0.2,0.3,0.3c1.1,0.9,2.7,0.8,3.7-0.2     L548.2,396.9z"></path>
			<path id="Tracciato_1037_1_" class="st0" d="M558.9,392.4l-2.6,2.8l2.1,1.9l-1,1l-2.1-1.9l-4,4.4c-0.6,0.7-0.6,1.3,0,1.8     c0.4,0.4,1.1,0.6,1.7,0.4l0.2,0.6c-1.1,0.6-2.4,0.4-3.3-0.4c-1-0.7-1.2-2.2-0.5-3.2c0.1-0.1,0.2-0.3,0.4-0.4l4.2-4.5l-1.2-1.1     l1-1l1.2,1.1l2.6-2.8L558.9,392.4z"></path>
			<path id="Tracciato_1038_1_" class="st0" d="M553,405.9l7.3-6.7l1.3,1.4l-7.3,6.7L553,405.9z M564,395.7l1.3,1.4l-1.8,1.6     l-1.3-1.4L564,395.7z"></path>
			<path id="Tracciato_1039_1_" class="st0" d="M560,411.3l8.1-2.6l1.2,1.6l-10.2,3l-1.4-1.8l5.8-8.9l1.3,1.7L560,411.3z"></path>
			<path id="Tracciato_1040_1_" class="st0" d="M568.3,424.1c-1.9,0.1-3.7-0.9-4.5-2.7c-1.4-2.3-0.6-5.3,1.7-6.7     c0.1-0.1,0.3-0.1,0.4-0.2c2.3-1.5,5.4-0.8,6.9,1.5c0.1,0.1,0.1,0.2,0.2,0.3c1.4,2.6,0.3,5.3-2.5,6.7l-0.3-0.1l-3.6-6.6     c-1.5,0.7-2.2,2.6-1.5,4.1c0,0.1,0.1,0.1,0.1,0.2c0.5,1.1,1.6,1.7,2.8,1.6L568.3,424.1z M567.8,415.9l2.7,5     c1.4-0.7,1.9-2.4,1.2-3.8c0,0,0,0,0-0.1C570.9,415.7,569.2,415.2,567.8,415.9z"></path>
			<path id="Tracciato_1041_1_" class="st0" d="M569.8,434.4l13.7-7.8l0.5,2.1l-11,6.1l12.6,1.1l0.5,2.2l-11,6.3l12.6,1l0.4,2     l-15.7-1.4l-0.4-2l11.3-6.5l-13-1.1L569.8,434.4z"></path>
			<path id="Tracciato_1042_1_" class="st0" d="M572.8,451.8l15.9,0l0,2l-7.9,0c1.4,0.5,2.2,1.9,2.2,3.3c0.2,1.8-1.1,3.3-2.9,3.5     c-0.2,0-0.5,0-0.7,0l-6.6,0l0-2l6.6,0c1,0.1,2-0.6,2.1-1.6c0-0.1,0-0.2,0-0.4c0-1-0.5-1.9-1.4-2.3c-0.9-0.4-1.9-0.6-2.9-0.5     l-4.3,0L572.8,451.8z"></path>
			<path id="Tracciato_1043_1_" class="st0" d="M573.6,472.2c-1.6-1-2.4-3-1.9-4.8c0.3-2.7,2.7-4.6,5.4-4.3c0.1,0,0.3,0,0.4,0.1     c2.7,0.2,4.8,2.6,4.5,5.4c0,0.1,0,0.2,0,0.3c-0.5,2.9-2.9,4.4-6,3.8l-0.2-0.3l1.1-7.4c-1.7-0.3-3.3,0.7-3.6,2.4     c0,0.1,0,0.2,0,0.2c-0.3,1.1,0.2,2.3,1.3,2.9L573.6,472.2z M578.2,465.4l-0.9,5.6c1.5,0.3,3-0.7,3.2-2.3c0,0,0,0,0-0.1     C580.7,467.1,579.7,465.7,578.2,465.4L578.2,465.4z"></path>
			<path id="Tracciato_1044_1_" class="st0" d="M570.4,483c-1.4-1.3-1.9-3.3-1.2-5.1c0.7-2.6,3.4-4.1,6-3.4c0.1,0,0.3,0.1,0.4,0.1     c2.7,0.6,4.3,3.3,3.7,6c0,0.1-0.1,0.2-0.1,0.3c-0.9,2.8-3.6,3.9-6.5,2.9l-0.2-0.3l2.2-7.1c-1.6-0.6-3.4,0.2-4,1.8     c0,0.1-0.1,0.2-0.1,0.2c-0.4,1.1-0.1,2.3,0.8,3.1L570.4,483z M575.9,476.9l-1.7,5.4c1.5,0.5,3-0.3,3.5-1.8c0,0,0,0,0-0.1     C578.2,479.1,577.4,477.5,575.9,476.9z"></path>
			<path id="Tracciato_1045_1_" class="st0" d="M567.1,484.4l14.6,6.4l-0.8,1.8l-14.6-6.4L567.1,484.4z"></path>
			<path id="Tracciato_1046_1_" class="st0" d="M570.8,491.9l-2.3,4.3l-1.7-0.9l2.3-4.3L570.8,491.9z"></path>
			<path id="Tracciato_1047_1_" class="st0" d="M559.9,506c-2.3-1.7-2.7-4.9-1-7.2c1.7-2.3,4.9-2.7,7.2-1c2.2,1.7,2.7,4.9,1.1,7.1     c-1.5,2.3-4.5,2.9-6.8,1.4C560.2,506.2,560.1,506.1,559.9,506z M561.1,504.4c2,1.5,3.8,1,4.8-0.4c1-1.4,0.9-3.2-1.1-4.7     c-2-1.4-3.7-1.1-4.8,0.4C558.9,501.1,559.1,503,561.1,504.4L561.1,504.4z"></path>
			<path id="Tracciato_1048_1_" class="st0" d="M554.5,504.5l7.1,6.9l-1.3,1.3l-1.5-1.5c0.7,1.4,0.4,3-0.7,4.1     c-1.1,1.4-3.1,1.6-4.5,0.5c-0.2-0.1-0.4-0.3-0.5-0.5l-4.7-4.6l1.4-1.4l4.7,4.6c0.6,0.8,1.8,0.9,2.6,0.3c0.1-0.1,0.2-0.2,0.3-0.3     c0.7-0.7,0.9-1.7,0.6-2.7c-0.4-0.9-1-1.7-1.7-2.4l-3.1-3L554.5,504.5z"></path>
			<path id="Tracciato_1049_1_" class="st0" d="M537.8,518.4l1.7-1.1l7.1,11.2l4.7-3l0.9,1.5l-11.2,7l-0.9-1.5l4.7-3L537.8,518.4z"></path>
			<path id="Tracciato_1050_1_" class="st0" d="M531.8,528.2c0.1,0.3,0.2,0.6,0.3,1c0.5,1.1,1.2,1.3,2,0.9c1.4-0.7,1.1-2.3,0.4-3.7     l-2.3-4.9l1.8-0.8l4.3,9l-1.6,0.8l-0.8-1.7c0.2,1.3-0.4,2.5-1.6,3.1c-1.1,0.6-2.6,0.2-3.3-0.9c-0.1-0.1-0.1-0.3-0.2-0.4     c-0.1-0.3-0.3-0.6-0.4-1L531.8,528.2z"></path>
			<path id="Tracciato_1051_1_" class="st0" d="M522.8,532.7c0.3,0.8,1,1.5,2.5,1c1.7-0.5,2-1.6,1.6-2.5l1.7-0.6     c0.5,1.3,0.2,3.5-2.9,4.5c-2.1,0.7-4,0.4-4.7-1.8l-1.6-4.9c-0.1-0.4-0.4-0.6-0.8-0.6c-0.1,0-0.1,0-0.2,0.1     c-0.3,0.1-0.5,0.2-0.7,0.4l-0.3-1.2c0.4-0.3,0.8-0.5,1.3-0.7c0.8-0.4,1.8-0.1,2.3,0.7c0.5-1.2,1.5-2,2.7-2.4c1.5-0.7,3.3,0,4,1.6     c0,0,0,0.1,0.1,0.1c0.4,1.4-0.1,2.7-1.9,3.6l-3.2,1.7L522.8,532.7z M522.1,530.6l2.6-1.4c0.8-0.5,1.3-1.1,1-1.9     c-0.3-0.9-1.3-1.3-2.2-1c-0.1,0-0.1,0-0.2,0.1c-1.3,0.3-2.1,1.5-1.8,2.7c0,0.1,0,0.2,0.1,0.2L522.1,530.6z"></path>
			<path id="Tracciato_1052_1_" class="st0" d="M518.9,542l-1.9,0.4l-0.5-2.4l1.9-0.4L518.9,542z M515.8,527.3l2,9.7l-1.9,0.4     l-2-9.7L515.8,527.3z"></path>
			<path id="Tracciato_1053_1_" class="st0" d="M511,528.3l0.9,9.9l-1.9,0.2l-0.2-2.1c-0.4,1.5-1.6,2.6-3.2,2.7     c-1.7,0.3-3.4-0.8-3.7-2.6c0-0.2-0.1-0.5-0.1-0.7l-0.6-6.6l1.9-0.2l0.6,6.5c0,1,0.8,1.9,1.8,1.9c0.1,0,0.3,0,0.4,0     c1-0.1,1.9-0.7,2.2-1.7c0.3-0.9,0.4-2,0.2-2.9l-0.4-4.3L511,528.3z"></path>
			<path id="Tracciato_1054_1_" class="st0" d="M490.8,531.1c0.9-1.7,2.7-2.6,4.6-2.4c2.7,0.1,4.8,2.3,4.8,5c0,0.1,0,0.3,0,0.4     c0,2.7-2.1,5-4.9,5c-0.1,0-0.2,0-0.4,0c-3-0.2-4.6-2.5-4.4-5.7l0.2-0.2l7.4,0.4c0.2-1.7-1-3.2-2.7-3.4c-0.1,0-0.2,0-0.2,0     c-1.2-0.2-2.3,0.5-2.8,1.5L490.8,531.1z M498,535l-5.7-0.3c-0.1,1.5,1,2.9,2.6,3c0,0,0,0,0.1,0C496.5,537.7,497.8,536.5,498,535z     "></path>
			<path id="Tracciato_1055_1_" class="st0" d="M482.5,533.1c-0.1,0.3-0.2,0.6-0.3,1c-0.2,1.2,0.2,1.7,1,1.9     c1.5,0.3,2.2-1.2,2.5-2.7l1-5.4l1.9,0.4l-1.9,9.8l-1.8-0.3l0.4-1.9c-0.6,1.2-1.9,1.8-3.2,1.6c-1.3-0.2-2.2-1.4-2.1-2.7     c0-0.1,0-0.3,0.1-0.4c0.1-0.3,0.2-0.7,0.3-1L482.5,533.1z"></path>
		</g>
	</g>
	<circle id="Ellisse_117_1_" class="st0" cx="475.9" cy="380.2" r="1.3"></circle>
</g>
</svg>
